<svg id="visual" viewBox="0 0 900 600" width="900" height="600" xmlns="http://www.w3.org/2000/svg" xmlns:xlink="http://www.w3.org/1999/xlink" version="1.1"><path d="M0 325L13.7 297C27.3 269 54.7 213 82 182C109.3 151 136.7 145 163.8 158C191 171 218 203 245.2 212C272.3 221 299.7 207 327 208C354.3 209 381.7 225 409 210C436.3 195 463.7 149 491 157C518.3 165 545.7 227 573 247C600.3 267 627.7 245 654.8 222C682 199 709 175 736.2 161C763.3 147 790.7 143 818 166C845.3 189 872.7 239 886.3 264L900 289L900 0L886.3 0C872.7 0 845.3 0 818 0C790.7 0 763.3 0 736.2 0C709 0 682 0 654.8 0C627.7 0 600.3 0 573 0C545.7 0 518.3 0 491 0C463.7 0 436.3 0 409 0C381.7 0 354.3 0 327 0C299.7 0 272.3 0 245.2 0C218 0 191 0 163.8 0C136.7 0 109.3 0 82 0C54.7 0 27.3 0 13.7 0L0 0Z" fill="#d3d3d3"></path><path d="M0 421L13.7 400C27.3 379 54.7 337 82 322C109.3 307 136.7 319 163.8 321C191 323 218 315 245.2 320C272.3 325 299.7 343 327 362C354.3 381 381.7 401 409 390C436.3 379 463.7 337 491 341C518.3 345 545.7 395 573 405C600.3 415 627.7 385 654.8 350C682 315 709 275 736.2 274C763.3 273 790.7 311 818 337C845.3 363 872.7 377 886.3 384L900 391L900 287L886.3 262C872.7 237 845.3 187 818 164C790.7 141 763.3 145 736.2 159C709 173 682 197 654.8 220C627.7 243 600.3 265 573 245C545.7 225 518.3 163 491 155C463.7 147 436.3 193 409 208C381.7 223 354.3 207 327 206C299.7 205 272.3 219 245.2 210C218 201 191 169 163.8 156C136.7 143 109.3 149 82 180C54.7 211 27.3 267 13.7 295L0 323Z" fill="#bfbfbf"></path><path d="M0 601L13.7 601C27.3 601 54.7 601 82 601C109.3 601 136.7 601 163.8 601C191 601 218 601 245.2 601C272.3 601 299.7 601 327 601C354.3 601 381.7 601 409 601C436.3 601 463.7 601 491 601C518.3 601 545.7 601 573 601C600.3 601 627.7 601 654.8 601C682 601 709 601 736.2 601C763.3 601 790.7 601 818 601C845.3 601 872.7 601 886.3 601L900 601L900 389L886.3 382C872.7 375 845.3 361 818 335C790.7 309 763.3 271 736.2 272C709 273 682 313 654.8 348C627.7 383 600.3 413 573 403C545.7 393 518.3 343 491 339C463.7 335 436.3 377 409 388C381.7 399 354.3 379 327 360C299.7 341 272.3 323 245.2 318C218 313 191 321 163.8 319C136.7 317 109.3 305 82 320C54.7 335 27.3 377 13.7 398L0 419Z" fill="#9e9e9e"></path></svg>